<svg width="374" height="243" viewBox="0 0 374 243" fill="none" xmlns="http://www.w3.org/2000/svg">
<path d="M232.718 216.841L184.361 179.051L85.1534 238.153L136.09 179.051L43.1083 242.991L63.2507 210.127L8.12418 218.255L65.371 169.489L-3.05176e-05 165.949L99.0759 130.059L10.1095 107.896L114.316 104.785L48.2147 74.4567L99.0759 78.967L1.85834 4.09477L130.761 61.7125L109.919 0L146.475 41.993L161.128 19.4057L180.676 54.6258L193.471 29.6476L200.087 58.0151L242.815 33.1031L227.509 78.967L250.002 65.4099L232.718 90.3673L373.864 88.8267L232.718 116.39L265.103 124.241L239.097 126.204L341.159 162.515L245.593 155.707L288.057 192.272L227.509 176.91L232.718 216.841Z" fill="#FBCE51"/>
</svg>
